<svg width="52" height="52" viewBox="0 0 52 52" fill="none" xmlns="http://www.w3.org/2000/svg">
<path d="M28.8574 51.8333H23.1426C14.239 51.8333 9.78724 51.8333 6.75166 49.2194C3.71608 46.6056 3.0865 42.2302 1.82734 33.4793L1.10719 28.4744C0.12696 21.6621 -0.363156 18.2559 1.03303 15.3436C2.42923 12.4313 5.40099 10.661 11.3445 7.12047L14.922 4.98938C20.3194 1.77421 23.018 0.166626 26 0.166626C28.982 0.166626 31.6806 1.77421 37.078 4.98937L40.6555 7.12047C46.599 10.661 49.5708 12.4313 50.967 15.3436C52.3632 18.2559 51.8731 21.6621 50.8928 28.4745L50.1727 33.4793C48.9135 42.2302 48.2839 46.6056 45.2484 49.2194C42.2128 51.8333 37.761 51.8333 28.8574 51.8333Z" fill="#FFCE48"/>
</svg>
